<?xml version="1.0" standalone="no"?>
<!DOCTYPE svg PUBLIC "-//W3C//DTD SVG 20010904//EN"
 "http://www.w3.org/TR/2001/REC-SVG-20010904/DTD/svg10.dtd">
<svg version="1.0" xmlns="http://www.w3.org/2000/svg"
 width="230.000000pt" height="230.000000pt" viewBox="0 0 230.000000 230.000000"
 preserveAspectRatio="xMidYMid meet">

<g transform="translate(0.000000,230.000000) scale(0.100000,-0.100000)"
fill="#000000" stroke="none">
<path d="M1020 2290 c-474 -56 -862 -395 -981 -858 -123 -480 93 -1001 521
-1256 657 -390 1500 -40 1691 702 130 508 -116 1051 -586 1291 -194 99 -437
145 -645 121z m310 -341 c0 -62 -10 -81 -55 -109 -29 -18 -38 -20 -50 -10 -22
18 -18 27 15 33 37 8 61 44 68 102 6 59 22 47 22 -16z m-167 -93 c18 -7 45
-28 60 -45 22 -27 27 -42 27 -90 0 -68 20 -177 30 -161 9 14 56 -23 75 -60 8
-15 30 -44 48 -64 47 -50 131 -190 152 -254 9 -29 15 -55 14 -57 -10 -9 -869
-9 -869 0 0 6 27 38 60 73 39 41 66 62 82 62 23 0 108 35 108 44 0 2 -26 -4
-57 -15 -32 -10 -69 -21 -83 -24 -24 -4 -61 -46 -113 -125 -17 -27 -18 -27
-136 -29 -66 -1 -122 3 -125 7 -3 5 -11 41 -17 81 -11 66 -11 73 7 87 19 15
19 15 0 10 -15 -5 -17 -4 -7 8 10 11 4 13 -34 8 l-45 -5 1 39 c0 22 15 75 33
119 l33 80 49 -2 c38 -1 43 0 24 7 -42 14 -78 11 -88 -7 -7 -12 -18 -15 -47
-10 -39 6 -64 30 -65 61 0 16 6 18 40 13 32 -4 51 1 94 24 78 43 131 47 197
17 77 -35 117 -73 145 -137 36 -81 73 -131 98 -131 11 -1 32 -7 46 -15 14 -8
36 -14 50 -14 23 1 22 2 -5 8 -16 4 -43 15 -59 23 l-30 16 32 16 c41 21 53 20
146 -10 44 -13 85 -23 93 -20 8 3 12 20 11 43 -1 37 -1 37 -5 6 -5 -40 -29
-43 -94 -13 -61 27 -118 26 -163 -5 -20 -13 -36 -23 -37 -22 -5 11 -23 157
-21 169 4 22 20 26 127 30 l90 3 -3 -43 c-1 -24 1 -50 6 -58 6 -10 8 8 8 48
l-1 63 -90 -3 c-72 -2 -88 -1 -77 9 6 7 12 21 12 31 0 10 5 27 12 38 7 10 9
23 5 27 -5 4 -12 1 -17 -7 -8 -12 -10 -9 -9 10 0 25 38 65 123 130 44 34 103
40 159 16z m321 -6 c14 -5 26 -14 26 -20 0 -15 -86 -121 -114 -140 -11 -8 -46
-17 -77 -20 l-56 -5 1 57 c1 44 5 59 17 63 9 3 22 16 29 29 7 13 22 29 34 34
27 14 107 15 140 2z m-650 -35 c11 -8 35 -15 53 -15 36 0 43 -13 16 -29 -19
-10 -58 1 -85 26 -33 30 -19 44 16 18z m12 -73 c6 -4 14 -20 17 -37 4 -16 9
-40 13 -52 5 -20 3 -23 -20 -23 -36 0 -156 58 -156 75 0 34 109 62 146 37z
m750 -27 c15 -23 15 -26 -5 -53 -11 -16 -27 -34 -35 -41 -8 -7 -18 -27 -21
-44 -10 -51 -26 -85 -42 -92 -40 -15 -105 74 -83 114 6 13 26 21 60 26 53 7
80 31 80 70 -1 15 -4 13 -14 -11 -8 -17 -21 -34 -31 -38 -24 -9 -65 -7 -65 3
0 15 93 82 107 77 7 -3 13 -1 13 4 0 18 19 10 36 -15z m183 -39 c32 -17 65
-62 58 -79 -2 -7 2 -18 9 -25 25 -23 17 21 -11 62 l-24 36 48 0 c46 0 51 -2
96 -55 40 -47 44 -56 28 -61 -10 -3 -31 -12 -46 -20 -16 -7 -36 -14 -45 -14
-21 0 -90 -75 -98 -106 -6 -24 29 -94 47 -94 5 0 1 10 -11 22 -21 23 -26 68
-10 98 15 27 77 62 98 56 11 -4 24 -18 30 -32 16 -34 15 -36 -8 -29 -17 5 -20
2 -19 -22 1 -18 3 -21 6 -10 6 24 27 16 31 -11 4 -29 -42 -76 -69 -69 -10 3
-22 1 -25 -4 -16 -27 -103 2 -162 55 -17 15 -22 16 -17 5 10 -27 112 -92 135
-86 11 3 18 1 14 -4 -3 -5 -11 -9 -19 -9 -7 0 -26 -11 -42 -24 -15 -13 -43
-31 -61 -40 -17 -9 -43 -34 -57 -56 -18 -28 -32 -40 -48 -40 -20 0 -26 9 -41
63 -19 68 -65 155 -123 232 -21 27 -32 46 -25 41 19 -11 79 12 101 40 11 14
22 42 26 64 5 29 19 50 55 84 45 42 53 46 100 46 28 0 64 -7 79 -14z m-1394
-386 c19 -8 19 -9 -2 -9 -12 -1 -25 4 -28 9 -7 12 2 12 30 0z m1616 -149 c-11
-19 -32 -31 -57 -31 -12 0 -12 4 2 25 20 31 71 37 55 6z m-1541 -112 c0 -48
-1 -49 -29 -49 -25 0 -30 4 -33 28 -3 25 -7 27 -50 30 l-48 3 0 -65 c0 -58 2
-66 19 -66 10 0 24 7 31 15 7 8 23 15 37 15 21 0 24 -4 21 -27 -3 -25 -8 -29
-55 -37 l-53 -9 0 -53 c0 -44 3 -54 20 -59 11 -3 20 -15 20 -26 0 -17 -8 -19
-74 -19 -61 0 -75 3 -81 18 -4 11 1 22 14 31 19 12 21 23 21 143 0 121 -1 130
-20 135 -11 3 -20 14 -20 24 0 16 11 19 108 21 59 2 122 1 140 -1 31 -3 32 -4
32 -52z m760 31 c0 -10 -9 -20 -20 -23 -19 -5 -20 -14 -20 -131 0 -115 2 -127
21 -145 38 -35 19 -51 -61 -51 -64 0 -70 2 -70 20 0 11 7 23 15 26 12 5 15 30
15 140 0 110 -3 136 -15 140 -17 7 -21 40 -5 46 5 2 39 1 75 0 55 -3 65 -7 65
-22z m421 -9 c34 -41 28 -97 -14 -133 -22 -20 -26 -28 -15 -28 24 0 58 -48 58
-82 0 -74 -46 -98 -189 -98 -70 0 -101 4 -104 13 -6 18 3 37 19 37 11 0 14 26
14 136 0 127 -1 136 -20 141 -25 7 -26 31 -1 41 11 4 67 5 126 2 97 -5 109 -7
126 -29z m-781 16 c21 -10 26 -21 28 -62 4 -55 -10 -88 -42 -103 l-21 -11 22
0 c29 -1 43 -29 43 -85 0 -34 4 -46 15 -46 16 0 19 -9 9 -34 -7 -19 -63 -22
-87 -3 -12 8 -17 31 -19 77 l-3 65 -37 3 -38 3 0 -55 c0 -43 3 -56 15 -56 9 0
15 -9 15 -25 0 -24 -2 -25 -65 -25 -53 0 -66 3 -75 19 -8 16 -6 21 10 26 19 6
20 15 20 141 0 110 -3 136 -15 140 -8 4 -15 15 -15 25 0 17 9 19 108 19 66 0
117 -5 132 -13z m1240 -37 c0 -49 -1 -50 -29 -50 -25 0 -30 4 -33 28 -3 25 -7
27 -50 30 l-48 3 0 -65 c0 -58 2 -66 19 -66 10 0 24 7 31 15 18 21 60 20 60
-2 0 -31 -14 -41 -62 -48 l-48 -7 0 -54 0 -54 46 0 c42 0 47 3 57 30 8 21 18
30 34 30 21 0 23 -4 23 -55 l0 -55 -135 0 -135 0 0 24 c0 13 7 26 15 30 12 4
15 29 15 137 0 122 -1 131 -20 136 -11 3 -20 14 -20 24 0 18 10 19 140 19
l140 0 0 -50z m-1860 -396 c0 -13 -3 -14 -13 -5 -17 14 -27 4 -27 -26 0 -24
24 -32 34 -10 3 6 5 3 3 -8 -3 -24 -35 -27 -50 -4 -5 9 -7 28 -3 42 5 20 13
27 31 27 16 0 25 -6 25 -16z m138 -20 c3 -34 -17 -58 -42 -48 -10 4 -16 18
-16 38 0 39 7 48 35 44 14 -2 21 -12 23 -34z m129 -11 c3 -48 -3 -55 -17 -20
l-9 22 0 -23 c-1 -42 -24 -18 -25 26 -1 40 1 43 24 40 22 -3 25 -8 27 -45z
m133 31 c0 -8 -4 -12 -10 -9 -6 4 -10 -9 -10 -30 0 -25 -4 -35 -12 -32 -8 2
-12 17 -10 36 3 22 0 31 -7 27 -6 -4 -11 0 -11 8 0 11 9 16 30 16 21 0 30 -5
30 -16z m130 8 c0 -5 -9 -18 -20 -30 -26 -27 -25 -35 1 -27 15 5 20 3 17 -6
-3 -8 -15 -15 -29 -17 -22 -3 -24 0 -24 43 0 42 2 45 28 45 15 0 27 -4 27 -8z
m118 -9 c-1 -10 1 -24 6 -31 11 -19 -16 -45 -37 -36 -18 7 -24 34 -7 34 6 0
10 -4 10 -10 0 -5 6 -10 13 -10 6 1 2 9 -10 19 -31 26 -30 51 3 51 18 0 24 -5
22 -17z m232 3 c0 -8 -7 -21 -15 -30 -8 -8 -15 -18 -15 -21 0 -4 7 -5 15 -1 9
3 15 0 15 -10 0 -11 -8 -14 -26 -12 -24 3 -27 7 -28 46 -1 39 1 42 27 42 17 0
27 -5 27 -14z m130 -1 c0 -8 -4 -15 -10 -15 -5 0 -10 5 -10 10 0 6 -5 10 -12
10 -6 0 -1 -11 12 -24 23 -26 22 -56 -3 -56 -19 0 -41 26 -28 34 5 3 11 0 14
-6 2 -7 8 -10 12 -6 4 4 -3 16 -15 26 -13 11 -20 24 -16 30 11 18 56 15 56 -3z
m127 -1 c4 -10 -1 -22 -10 -29 -10 -7 -17 -20 -17 -29 0 -9 -6 -16 -13 -16 -8
0 -12 15 -12 45 0 40 2 45 23 45 12 0 25 -7 29 -16z m133 2 c0 -8 -7 -21 -15
-30 -20 -19 -19 -27 1 -19 12 4 15 2 12 -8 -2 -8 -16 -15 -29 -17 -23 -3 -25
0 -24 43 0 42 2 45 28 45 17 0 27 -5 27 -14z m130 -1 c0 -8 -4 -15 -10 -15 -5
0 -10 5 -10 10 0 6 -4 10 -10 10 -5 0 -10 -13 -10 -30 0 -16 5 -30 10 -30 6 0
10 5 10 10 0 6 5 10 10 10 16 0 11 -27 -6 -34 -23 -9 -44 12 -44 44 0 33 7 40
37 40 14 0 23 -6 23 -15z m100 -31 c0 -59 -22 -55 -24 4 -1 28 3 42 12 42 8 0
12 -16 12 -46z m123 19 c3 -16 9 -36 12 -45 5 -13 2 -18 -9 -18 -9 0 -16 7
-16 15 0 8 -4 15 -10 15 -5 0 -9 -4 -7 -9 1 -5 -1 -9 -5 -10 -10 -1 -10 5 -2
47 8 39 29 42 37 5z m112 -18 c0 -29 -4 -45 -12 -45 -9 0 -13 16 -13 45 0 29
4 45 13 45 8 0 12 -16 12 -45z m130 34 c4 -6 4 -13 0 -17 -3 -3 -10 0 -15 8
-5 8 -12 11 -16 7 -4 -4 2 -14 14 -23 12 -8 22 -21 22 -28 0 -17 -25 -27 -45
-20 -17 7 -21 34 -5 34 6 0 10 -4 10 -10 0 -5 5 -10 12 -10 6 0 1 11 -11 24
-13 14 -20 29 -16 35 8 14 42 14 50 0z"/>
<path d="M1170 1731 c-11 -17 -29 -33 -40 -36 -11 -4 -20 -10 -20 -15 0 -11
43 0 55 15 6 7 21 12 34 11 13 -1 26 4 28 10 2 7 -6 10 -22 7 -29 -6 -33 4 -7
23 9 7 12 14 5 14 -6 0 -21 -13 -33 -29z"/>
<path d="M604 1585 c-18 -14 -17 -14 12 -9 54 10 71 -36 20 -56 -20 -9 -20 -9
0 -9 44 -2 59 47 22 73 -28 20 -29 20 -54 1z"/>
<path d="M967 1544 c-14 -15 -6 -26 9 -13 14 11 18 10 31 -6 15 -20 15 -20 11
0 -3 20 -37 32 -51 19z"/>
<path d="M529 1524 c-12 -15 -11 -16 10 -9 16 5 21 4 17 -4 -8 -13 13 -14 33
-2 11 7 10 11 -7 20 -28 15 -37 14 -53 -5z"/>
<path d="M1282 1520 c0 -14 2 -19 5 -12 2 6 2 18 0 25 -3 6 -5 1 -5 -13z"/>
<path d="M850 1509 c0 -11 -4 -17 -10 -14 -5 3 -10 1 -10 -4 0 -17 27 -13 34
5 9 23 7 34 -4 34 -5 0 -10 -9 -10 -21z"/>
<path d="M1255 1443 c-29 -69 -29 -74 0 -20 14 27 25 53 23 58 -2 5 -12 -12
-23 -38z"/>
<path d="M611 1435 c-2 -43 -21 -76 -60 -102 -41 -28 -29 -31 15 -4 34 21 58
75 51 113 -3 18 -5 17 -6 -7z"/>
<path d="M367 1363 c-12 -11 -8 -23 7 -23 8 0 16 7 20 15 5 15 -14 21 -27 8z"/>
<path d="M458 1293 c7 -3 16 -2 19 1 4 3 -2 6 -13 5 -11 0 -14 -3 -6 -6z"/>
<path d="M1604 1583 c-17 -17 -17 -18 0 -21 10 -2 30 -1 44 3 26 6 26 7 8 21
-25 18 -31 18 -52 -3z"/>
<path d="M1842 1428 c-15 -15 -16 -28 -2 -28 6 0 9 4 8 9 -2 5 2 8 7 8 6 -1 9
-8 8 -16 -1 -9 2 -10 9 -3 11 11 4 42 -10 42 -4 0 -13 -5 -20 -12z"/>
<path d="M1490 975 l0 -65 29 0 c49 0 77 61 51 111 -8 13 -21 19 -45 19 l-35
0 0 -65z"/>
<path d="M1490 815 l0 -55 33 0 c40 0 57 15 57 51 0 48 -9 59 -51 59 l-39 0 0
-55z"/>
<path d="M737 1033 c-4 -3 -7 -33 -7 -65 0 -55 1 -58 24 -58 14 0 32 7 40 16
19 18 21 85 4 102 -13 13 -50 16 -61 5z"/>
<path d="M340 610 c0 -16 5 -30 10 -30 6 0 10 14 10 30 0 17 -4 30 -10 30 -5
0 -10 -13 -10 -30z"/>
<path d="M481 624 c0 -11 3 -14 6 -6 3 7 2 16 -1 19 -3 4 -6 -2 -5 -13z"/>
<path d="M730 630 c0 -5 5 -10 10 -10 6 0 10 5 10 10 0 6 -4 10 -10 10 -5 0
-10 -4 -10 -10z"/>
<path d="M860 630 c0 -5 5 -10 10 -10 6 0 10 5 10 10 0 6 -4 10 -10 10 -5 0
-10 -4 -10 -10z"/>
<path d="M1090 624 c0 -8 5 -12 10 -9 6 4 8 11 5 16 -9 14 -15 11 -15 -7z"/>
<path d="M1351 624 c0 -11 3 -14 6 -6 3 7 2 16 -1 19 -3 4 -6 -2 -5 -13z"/>
<path d="M1480 630 c0 -5 5 -10 11 -10 5 0 7 5 4 10 -3 6 -8 10 -11 10 -2 0
-4 -4 -4 -10z"/>
</g>
</svg>
