<svg width="307" height="307" viewBox="0 0 307 307" fill="none" xmlns="http://www.w3.org/2000/svg">
<ellipse cx="153" cy="154.5" rx="149" ry="147.5" fill="#D9D9D9"/>
<rect x="21" y="161" width="261" height="54" fill="#FF5E00"/>
<rect x="250" y="143" width="26" height="25" fill="#FF5E00"/>
<path d="M135.983 1.33417C72.7195 8.80835 20.934 54.0539 5.05137 115.849C-11.3652 179.914 17.4639 249.451 74.588 283.485C162.276 335.537 274.79 288.824 300.282 189.791C317.633 121.989 284.8 49.516 222.07 17.4837C196.177 4.27045 163.744 -1.86908 135.983 1.33417ZM177.358 46.8466C177.358 55.1216 176.023 57.6575 170.017 61.3946C166.147 63.797 164.946 64.064 163.344 62.7293C160.408 60.3269 160.942 59.1257 165.346 58.3248C170.284 57.2571 173.488 52.4523 174.422 44.7112C175.223 36.8365 177.358 38.4382 177.358 46.8466ZM155.069 59.2591C157.471 60.1934 161.075 62.9962 163.077 65.2652C166.013 68.8688 166.681 70.8708 166.681 77.2773C166.681 86.3531 169.35 100.901 170.685 98.7656C171.886 96.897 178.159 101.835 180.695 106.774C181.763 108.776 184.699 112.646 187.101 115.316C193.374 121.989 204.586 140.674 207.388 149.216C208.59 153.087 209.39 156.557 209.257 156.824C207.922 158.025 93.2735 158.025 93.2735 156.824C93.2735 156.023 96.8771 151.752 101.282 147.081C106.487 141.609 110.09 138.806 112.226 138.806C115.296 138.806 126.64 134.135 126.64 132.933C126.64 132.666 123.17 133.467 119.033 134.935C114.762 136.27 109.824 137.738 107.955 138.139C104.752 138.672 99.8134 144.278 92.8731 154.822C90.6042 158.426 90.4707 158.426 74.7215 158.693C65.9126 158.826 58.4384 158.292 58.038 157.758C57.6376 157.091 56.5699 152.286 55.7691 146.947C54.3009 138.139 54.3009 137.204 56.7034 135.336C59.2393 133.334 59.2393 133.334 56.7034 134.001C54.7014 134.668 54.4344 134.535 55.7691 132.933C57.1038 131.465 56.303 131.198 51.2312 131.866L45.2251 132.533L45.3586 127.328C45.3586 124.391 47.3606 117.318 49.763 111.445L54.1675 100.768L60.7074 101.035C65.7792 101.168 66.4465 101.035 63.9106 100.1C58.305 98.2317 53.5001 98.6321 52.1655 101.035C51.2312 102.636 49.763 103.037 45.8925 102.369C40.6872 101.568 37.3506 98.3652 37.2171 94.2277C37.2171 92.0922 38.0179 91.8252 42.5558 92.4926C46.8268 93.0265 49.3626 92.3591 55.1018 89.2894C65.5122 83.5502 72.586 83.0164 81.3949 87.0204C91.6719 91.6918 97.0106 96.7635 100.748 105.305C105.553 116.116 110.491 122.79 113.828 122.79C115.296 122.923 118.099 123.724 119.967 124.792C121.836 125.86 124.772 126.66 126.64 126.66C129.71 126.527 129.577 126.393 125.973 125.593C123.838 125.059 120.234 123.591 118.099 122.523L114.094 120.387L118.365 118.252C123.838 115.449 125.439 115.582 137.852 119.587C143.724 121.322 149.196 122.656 150.264 122.256C151.332 121.855 151.866 119.587 151.732 116.517C151.599 111.578 151.599 111.578 151.065 115.716C150.398 121.055 147.194 121.455 138.519 117.451C130.378 113.847 122.77 113.981 116.764 118.118C114.094 119.853 111.959 121.188 111.826 121.055C111.158 119.587 108.756 100.1 109.023 98.4986C109.557 95.5623 111.692 95.0285 125.973 94.4946L137.985 94.0942L137.585 99.8333C137.451 103.037 137.718 106.507 138.386 107.574C139.186 108.909 139.453 106.507 139.453 101.168L139.32 92.7595L127.308 93.1599C117.698 93.4268 115.563 93.2934 117.031 91.9587C117.832 91.0244 118.632 89.1559 118.632 87.8212C118.632 86.4865 119.3 84.2176 120.234 82.7494C121.168 81.4148 121.435 79.6797 120.901 79.1458C120.234 78.6119 119.3 79.0123 118.632 80.0801C117.565 81.6817 117.298 81.2813 117.431 78.7454C117.431 75.4087 122.503 70.07 133.848 61.3946C139.72 56.8567 147.595 56.0559 155.069 59.2591ZM197.912 60.0599C199.781 60.7273 201.382 61.9285 201.382 62.7293C201.382 64.7313 189.904 78.8789 186.167 81.4148C184.699 82.4825 180.028 83.6837 175.89 84.0841L168.416 84.7514L168.549 77.1438C168.683 71.2712 169.217 69.2692 170.818 68.7353C172.019 68.3349 173.755 66.5999 174.689 64.8648C175.623 63.1297 177.625 60.9942 179.227 60.3269C182.83 58.4583 193.508 58.3248 197.912 60.0599ZM111.158 64.7313C112.626 65.799 115.83 66.7333 118.232 66.7333C123.037 66.7333 123.971 68.4684 120.367 70.6039C117.832 71.9386 112.626 70.4704 109.023 67.1337C104.618 63.1297 106.487 61.2611 111.158 64.7313ZM112.76 74.4744C113.561 75.0083 114.628 77.1438 115.029 79.4128C115.563 81.5482 116.23 84.7514 116.764 86.3531C117.431 89.0224 117.164 89.4228 114.094 89.4228C109.29 89.4228 93.2735 81.6817 93.2735 79.4128C93.2735 74.8748 107.821 71.1378 112.76 74.4744ZM212.861 78.0781C214.863 81.1478 214.863 81.5482 212.193 85.1519C210.725 87.2873 208.59 89.6898 207.522 90.624C206.454 91.5583 205.119 94.2277 204.719 96.4966C203.384 103.303 201.249 107.841 199.113 108.776C193.775 110.778 185.099 98.899 188.036 93.5603C188.836 91.8252 191.506 90.7575 196.044 90.0902C203.117 89.1559 206.721 85.9527 206.721 80.7474C206.588 78.7454 206.187 79.0123 204.853 82.2156C203.785 84.4845 202.05 86.7535 200.715 87.2873C197.512 88.4886 192.04 88.2216 192.04 86.8869C192.04 84.8849 204.452 75.9426 206.321 76.6099C207.255 77.0103 208.056 76.7434 208.056 76.076C208.056 73.6736 210.592 74.7414 212.861 78.0781ZM237.285 83.2833C241.556 85.5523 245.961 91.5583 245.026 93.8273C244.759 94.7615 245.293 96.2297 246.228 97.164C249.564 100.234 248.496 94.3611 244.759 88.8889L241.556 84.0841H247.963C254.102 84.0841 254.769 84.3511 260.775 91.4248C266.114 97.6978 266.648 98.899 264.513 99.5664C263.178 99.9668 260.375 101.168 258.373 102.236C256.238 103.17 253.568 104.104 252.367 104.104C249.564 104.104 240.355 114.114 239.287 118.252C238.486 121.455 243.158 130.798 245.56 130.798C246.228 130.798 245.694 129.463 244.092 127.862C241.289 124.792 240.622 118.786 242.757 114.782C244.759 111.178 253.034 106.507 255.837 107.307C257.305 107.841 259.04 109.71 259.841 111.578C261.977 116.116 261.843 116.383 258.773 115.449C256.505 114.782 256.104 115.182 256.238 118.385C256.371 120.788 256.638 121.188 257.038 119.72C257.839 116.517 260.642 117.585 261.176 121.188C261.71 125.059 255.57 131.332 251.967 130.397C250.632 129.997 249.03 130.264 248.63 130.931C246.494 134.535 234.883 130.664 227.008 123.591C224.739 121.589 224.072 121.455 224.739 122.923C226.074 126.527 239.688 135.202 242.757 134.401C244.225 134.001 245.16 134.268 244.626 134.935C244.225 135.603 243.158 136.137 242.09 136.137C241.156 136.137 238.62 137.605 236.484 139.34C234.482 141.075 230.745 143.477 228.343 144.678C226.074 145.88 222.604 149.216 220.735 152.153C218.333 155.89 216.464 157.491 214.329 157.491C211.659 157.491 210.859 156.29 208.857 149.083C206.321 140.007 200.181 128.395 192.44 118.118C189.637 114.515 188.169 111.979 189.103 112.646C191.639 114.114 199.647 111.045 202.584 107.307C204.052 105.439 205.52 101.702 206.054 98.7656C206.721 94.895 208.59 92.0922 213.394 87.5543C219.4 81.9486 220.468 81.4148 226.741 81.4148C230.478 81.4148 235.283 82.349 237.285 83.2833ZM51.2312 134.802C53.7671 135.87 53.7671 136.003 50.9643 136.003C49.3626 136.137 47.6276 135.469 47.2272 134.802C46.2929 133.2 47.4941 133.2 51.2312 134.802ZM266.915 154.689C265.447 157.224 262.644 158.826 259.307 158.826C257.706 158.826 257.706 158.292 259.574 155.489C262.244 151.352 269.05 150.551 266.915 154.689ZM61.2413 169.637C61.2413 176.043 61.1078 176.177 57.3707 176.177C54.034 176.177 53.3667 175.643 52.9663 172.44C52.5659 169.103 52.032 168.836 46.2929 168.436L39.8864 168.035V176.711C39.8864 184.452 40.1534 185.52 42.4223 185.52C43.757 185.52 45.6255 184.585 46.5598 183.518C47.4941 182.45 49.6296 181.516 51.4981 181.516C54.3009 181.516 54.7014 182.049 54.3009 185.119C53.9005 188.456 53.2332 188.99 46.9602 190.057L39.8864 191.259V198.332C39.8864 204.205 40.2868 205.54 42.5558 206.207C44.0239 206.607 45.2251 208.209 45.2251 209.677C45.2251 211.946 44.1574 212.213 35.3485 212.213C27.207 212.213 25.3385 211.813 24.5377 209.811C24.0038 208.343 24.6711 206.874 26.4062 205.673C28.9421 204.072 29.209 202.603 29.209 186.587C29.209 170.438 29.0756 169.237 26.5397 168.569C25.0715 168.169 23.8703 166.701 23.8703 165.366C23.8703 163.23 25.3385 162.83 38.2848 162.563C46.1594 162.296 54.5679 162.43 56.9703 162.697C61.1078 163.097 61.2413 163.23 61.2413 169.637ZM162.677 165.499C162.677 166.834 161.476 168.169 160.007 168.569C157.471 169.237 157.338 170.438 157.338 186.053C157.338 201.402 157.605 203.004 160.141 205.406C165.213 210.078 162.677 212.213 151.999 212.213C143.457 212.213 142.657 211.946 142.657 209.544C142.657 208.076 143.591 206.474 144.659 206.074C146.26 205.406 146.661 202.07 146.661 187.388C146.661 172.707 146.26 169.237 144.659 168.703C142.39 167.768 141.856 163.364 143.991 162.563C144.659 162.296 149.196 162.43 154.001 162.563C161.342 162.964 162.677 163.497 162.677 165.499ZM218.867 166.701C223.405 172.173 222.604 179.647 216.998 184.452C214.062 187.121 213.528 188.189 214.996 188.189C218.199 188.189 222.737 194.595 222.737 199.133C222.737 209.01 216.598 212.213 197.512 212.213C188.169 212.213 184.032 211.679 183.631 210.478C182.83 208.076 184.032 205.54 186.167 205.54C187.635 205.54 188.036 202.07 188.036 187.388C188.036 170.438 187.902 169.237 185.366 168.569C182.03 167.635 181.896 164.432 185.233 163.097C186.701 162.563 194.175 162.43 202.05 162.83C214.996 163.497 216.598 163.764 218.867 166.701ZM114.628 164.565C117.431 165.9 118.099 167.368 118.365 172.84C118.899 180.181 117.031 184.585 112.76 186.587L109.957 188.055H112.893C116.764 188.189 118.632 191.926 118.632 199.4C118.632 203.938 119.166 205.54 120.634 205.54C122.77 205.54 123.17 206.741 121.836 210.078C120.901 212.614 113.427 213.014 110.224 210.478C108.622 209.41 107.955 206.341 107.688 200.201L107.288 191.526L102.349 191.125L97.2776 190.725V198.066C97.2776 203.805 97.678 205.54 99.2796 205.54C100.481 205.54 101.282 206.741 101.282 208.876C101.282 212.08 101.015 212.213 92.6062 212.213C85.5324 212.213 83.7973 211.813 82.5961 209.677C81.5284 207.542 81.7953 206.874 83.9308 206.207C86.4667 205.406 86.6001 204.205 86.6001 187.388C86.6001 172.707 86.1997 169.237 84.5981 168.703C83.5304 168.169 82.5961 166.701 82.5961 165.366C82.5961 163.097 83.7973 162.83 97.0106 162.83C105.819 162.83 112.626 163.497 114.628 164.565ZM280.128 169.503C280.128 176.043 279.995 176.177 276.258 176.177C272.921 176.177 272.254 175.643 271.853 172.44C271.453 169.103 270.919 168.836 265.18 168.436L258.773 168.035V176.711C258.773 184.452 259.04 185.52 261.309 185.52C262.644 185.52 264.513 184.585 265.447 183.518C267.849 180.715 273.455 180.848 273.455 183.785C273.455 187.922 271.586 189.257 265.18 190.191L258.773 191.125V198.332V205.54H264.913C270.519 205.54 271.186 205.139 272.521 201.536C273.588 198.733 274.923 197.532 277.059 197.532C279.861 197.532 280.128 198.066 280.128 204.872V212.213H262.11H244.092V209.01C244.092 207.275 245.026 205.54 246.094 205.006C247.696 204.472 248.096 201.135 248.096 186.721C248.096 170.438 247.963 169.237 245.427 168.569C243.959 168.169 242.757 166.701 242.757 165.366C242.757 162.964 244.092 162.83 261.443 162.83H280.128V169.503ZM31.8784 222.357C31.8784 224.092 31.478 224.225 30.1433 223.024C27.8743 221.155 26.5397 222.49 26.5397 226.494C26.5397 229.697 29.7429 230.765 31.0776 227.829C31.478 227.028 31.7449 227.428 31.478 228.897C31.0776 232.1 26.8066 232.5 24.8046 229.43C24.1372 228.229 23.8703 225.693 24.4042 223.825C25.0715 221.155 26.1393 220.221 28.5417 220.221C30.6772 220.221 31.8784 221.022 31.8784 222.357ZM50.2969 225.026C50.6973 229.564 48.028 232.767 44.6913 231.432C43.3566 230.899 42.5558 229.03 42.5558 226.361C42.5558 221.155 43.4901 219.954 47.2272 220.488C49.0957 220.755 50.03 222.09 50.2969 225.026ZM67.5143 226.494C67.9147 232.901 67.1138 233.835 65.2453 229.164L64.0441 226.227V229.297C63.9106 234.903 60.8409 231.699 60.7074 225.827C60.5739 220.488 60.8409 220.088 63.9106 220.488C66.8469 220.889 67.2473 221.556 67.5143 226.494ZM85.2655 222.357C85.2655 223.424 84.7316 223.958 83.9308 223.558C83.13 223.024 82.5961 224.759 82.5961 227.562C82.5961 230.899 82.0622 232.233 80.9945 231.833C79.9268 231.566 79.3929 229.564 79.6598 227.028C80.0602 224.092 79.6598 222.891 78.7255 223.424C77.9247 223.958 77.2574 223.424 77.2574 222.357C77.2574 220.889 78.4586 220.221 81.2614 220.221C84.0643 220.221 85.2655 220.889 85.2655 222.357ZM102.616 221.289C102.616 221.956 101.415 223.691 99.9469 225.293C96.4767 228.897 96.6102 229.964 100.08 228.897C102.082 228.229 102.75 228.496 102.349 229.697C101.949 230.765 100.347 231.699 98.4788 231.966C95.5425 232.367 95.2755 231.966 95.2755 226.227C95.2755 220.622 95.5425 220.221 99.0126 220.221C101.015 220.221 102.616 220.755 102.616 221.289ZM118.365 222.49C118.232 223.825 118.499 225.693 119.166 226.628C120.634 229.164 117.031 232.634 114.228 231.432C111.826 230.498 111.025 226.895 113.294 226.895C114.094 226.895 114.628 227.428 114.628 228.229C114.628 228.897 115.429 229.564 116.363 229.564C117.164 229.43 116.63 228.363 115.029 227.028C110.891 223.558 111.025 220.221 115.429 220.221C117.832 220.221 118.632 220.889 118.365 222.49ZM149.33 222.09C149.33 223.157 148.396 224.893 147.328 226.094C146.26 227.162 145.326 228.496 145.326 228.897C145.326 229.43 146.26 229.564 147.328 229.03C148.529 228.63 149.33 229.03 149.33 230.365C149.33 231.833 148.262 232.233 145.86 231.966C142.657 231.566 142.256 231.032 142.123 225.827C141.989 220.622 142.256 220.221 145.726 220.221C147.995 220.221 149.33 220.889 149.33 222.09ZM166.681 222.223C166.681 223.291 166.147 224.225 165.346 224.225C164.679 224.225 164.011 223.558 164.011 222.891C164.011 222.09 163.344 221.556 162.41 221.556C161.609 221.556 162.276 223.024 164.011 224.759C167.081 228.229 166.948 232.233 163.611 232.233C161.075 232.233 158.139 228.763 159.874 227.695C160.541 227.295 161.342 227.695 161.742 228.496C162.009 229.43 162.81 229.831 163.344 229.297C163.878 228.763 162.944 227.162 161.342 225.827C159.607 224.359 158.673 222.624 159.207 221.823C160.675 219.42 166.681 219.821 166.681 222.223ZM183.631 222.357C184.165 223.691 183.498 225.293 182.296 226.227C180.962 227.162 180.028 228.897 180.028 230.098C180.028 231.299 179.227 232.233 178.292 232.233C177.225 232.233 176.691 230.231 176.691 226.227C176.691 220.889 176.958 220.221 179.761 220.221C181.362 220.221 183.097 221.155 183.631 222.357ZM201.382 222.09C201.382 223.157 200.448 224.893 199.38 226.094C196.711 228.63 196.844 229.697 199.514 228.63C201.115 228.096 201.516 228.363 201.115 229.697C200.848 230.765 198.98 231.699 197.245 231.966C194.175 232.367 193.908 231.966 194.042 226.227C194.042 220.622 194.309 220.221 197.779 220.221C200.048 220.221 201.382 220.889 201.382 222.09ZM218.733 222.223C218.733 223.291 218.199 224.225 217.398 224.225C216.731 224.225 216.064 223.558 216.064 222.891C216.064 222.09 215.53 221.556 214.729 221.556C214.062 221.556 213.394 223.291 213.394 225.56C213.394 227.695 214.062 229.564 214.729 229.564C215.53 229.564 216.064 228.897 216.064 228.229C216.064 227.428 216.731 226.895 217.398 226.895C219.534 226.895 218.867 230.498 216.598 231.432C213.528 232.634 210.725 229.831 210.725 225.56C210.725 221.155 211.659 220.221 215.663 220.221C217.532 220.221 218.733 221.022 218.733 222.223ZM232.08 226.361C232.08 234.235 229.144 233.701 228.877 225.827C228.743 222.09 229.277 220.221 230.478 220.221C231.546 220.221 232.08 222.357 232.08 226.361ZM248.496 223.825C248.897 225.96 249.698 228.63 250.098 229.831C250.765 231.566 250.365 232.233 248.897 232.233C247.696 232.233 246.761 231.299 246.761 230.231C246.761 229.164 246.228 228.229 245.427 228.229C244.759 228.229 244.225 228.763 244.492 229.43C244.626 230.098 244.359 230.632 243.825 230.765C242.49 230.899 242.49 230.098 243.558 224.492C244.626 219.287 247.429 218.887 248.496 223.825ZM263.445 226.227C263.445 230.098 262.911 232.233 261.843 232.233C260.642 232.233 260.108 230.098 260.108 226.227C260.108 222.357 260.642 220.221 261.843 220.221C262.911 220.221 263.445 222.357 263.445 226.227ZM280.796 221.689C281.329 222.49 281.329 223.424 280.796 223.958C280.395 224.359 279.461 223.958 278.794 222.891C278.126 221.823 277.192 221.422 276.658 221.956C276.124 222.49 276.925 223.825 278.527 225.026C280.128 226.094 281.463 227.829 281.463 228.763C281.463 231.032 278.126 232.367 275.457 231.432C273.188 230.498 272.654 226.895 274.79 226.895C275.59 226.895 276.124 227.428 276.124 228.229C276.124 228.897 276.792 229.564 277.726 229.564C278.527 229.564 277.859 228.096 276.258 226.361C274.523 224.492 273.588 222.49 274.122 221.689C275.19 219.821 279.728 219.821 280.796 221.689Z" fill="black"/>
<path d="M156.003 75.9426C154.535 78.2115 152.133 80.347 150.665 80.7474C149.196 81.2813 147.995 82.0821 147.995 82.7495C147.995 84.2176 153.734 82.7495 155.336 80.7474C156.137 79.8132 158.139 79.1458 159.874 79.2793C161.609 79.4128 163.344 78.7454 163.611 77.9446C163.878 77.0103 162.81 76.6099 160.675 77.0103C156.804 77.8111 156.27 76.4765 159.74 73.9406C160.942 73.0063 161.342 72.072 160.408 72.072C159.607 72.072 157.605 73.8071 156.003 75.9426Z" fill="black"/>
<path d="M80.4606 95.4289C78.0582 97.2974 78.1917 97.2974 82.0622 96.6301C89.2695 95.2954 91.5384 101.435 84.7316 104.104C82.0622 105.306 82.0622 105.306 84.7316 105.306C90.6042 105.572 92.6062 99.0325 87.6679 95.5624C83.9308 92.893 83.7973 92.893 80.4606 95.4289Z" fill="black"/>
<path d="M128.909 100.901C127.041 102.903 128.109 104.371 130.111 102.636C131.979 101.168 132.513 101.301 134.248 103.437C136.25 106.106 136.25 106.106 135.716 103.437C135.316 100.768 130.778 99.166 128.909 100.901Z" fill="black"/>
<path d="M70.4505 103.57C68.8489 105.572 68.9824 105.706 71.7852 104.772C73.9207 104.104 74.588 104.238 74.0542 105.305C72.9864 107.041 75.7892 107.174 78.4586 105.572C79.9267 104.638 79.7933 104.104 77.5243 102.903C73.7872 100.901 72.586 101.035 70.4505 103.57Z" fill="black"/>
<path d="M170.952 104.104C170.952 105.973 171.219 106.64 171.619 105.706C171.886 104.905 171.886 103.303 171.619 102.369C171.219 101.568 170.952 102.236 170.952 104.104Z" fill="black"/>
<path d="M113.294 105.572C113.294 107.041 112.76 107.841 111.959 107.441C111.292 107.041 110.624 107.307 110.624 107.975C110.624 110.244 114.228 109.71 115.162 107.307C116.363 104.238 116.097 102.77 114.628 102.77C113.961 102.77 113.294 103.971 113.294 105.572Z" fill="black"/>
<path d="M167.348 114.381C163.478 123.591 163.478 124.258 167.348 117.051C169.217 113.447 170.685 109.977 170.418 109.31C170.151 108.642 168.816 110.911 167.348 114.381Z" fill="black"/>
<path d="M81.3949 115.449C81.128 121.188 78.5921 125.593 73.3868 129.063C67.9146 132.8 69.5163 133.2 75.3888 129.597C79.9267 126.794 83.13 119.587 82.1957 114.515C81.7953 112.112 81.5284 112.246 81.3949 115.449Z" fill="black"/>
<path d="M48.8288 125.059C47.2272 126.527 47.761 128.128 49.763 128.128C50.8308 128.128 51.8985 127.194 52.4324 126.126C53.0997 124.124 50.5639 123.324 48.8288 125.059Z" fill="black"/>
<path d="M60.9743 134.401C61.9086 134.802 63.1098 134.668 63.5102 134.268C64.0441 133.868 63.2433 133.467 61.7751 133.601C60.307 133.601 59.9066 134.001 60.9743 134.401Z" fill="black"/>
<path d="M213.928 95.6958C211.659 97.9648 211.659 98.0982 213.928 98.4986C215.263 98.7656 217.932 98.6321 219.801 98.0982C223.271 97.2974 223.271 97.164 220.869 95.2954C217.532 92.893 216.731 92.893 213.928 95.6958Z" fill="black"/>
<path d="M245.694 116.383C243.692 118.385 243.558 120.12 245.427 120.12C246.228 120.12 246.628 119.587 246.494 118.919C246.228 118.252 246.761 117.851 247.429 117.851C248.23 117.985 248.63 118.919 248.496 119.987C248.363 121.188 248.763 121.322 249.698 120.387C251.166 118.919 250.232 114.782 248.363 114.782C247.829 114.782 246.628 115.449 245.694 116.383Z" fill="black"/>
<path d="M198.713 176.844V185.52H202.584C209.123 185.52 212.861 177.378 209.39 170.705C208.323 168.97 206.588 168.169 203.384 168.169H198.713V176.844Z" fill="black"/>
<path d="M198.713 198.199V205.54H203.117C208.456 205.54 210.725 203.538 210.725 198.733C210.725 192.326 209.524 190.858 203.918 190.858H198.713V198.199Z" fill="black"/>
<path d="M98.2118 169.103C97.678 169.503 97.2776 173.507 97.2776 177.778C97.2776 185.119 97.411 185.52 100.481 185.52C102.349 185.52 104.752 184.585 105.819 183.384C108.355 180.982 108.622 172.039 106.353 169.77C104.618 168.035 99.68 167.635 98.2118 169.103Z" fill="black"/>
<path d="M45.2251 225.56C45.2251 227.695 45.8925 229.564 46.5598 229.564C47.3606 229.564 47.8945 227.695 47.8945 225.56C47.8945 223.291 47.3606 221.556 46.5598 221.556C45.8925 221.556 45.2251 223.291 45.2251 225.56Z" fill="black"/>
<path d="M64.0441 223.691C64.0441 225.159 64.4445 225.56 64.8449 224.492C65.2453 223.558 65.1118 222.357 64.7114 221.956C64.311 221.422 63.9106 222.223 64.0441 223.691Z" fill="black"/>
<path d="M97.2776 222.891C97.2776 223.558 97.9449 224.225 98.6122 224.225C99.413 224.225 99.9469 223.558 99.9469 222.891C99.9469 222.09 99.413 221.556 98.6122 221.556C97.9449 221.556 97.2776 222.09 97.2776 222.891Z" fill="black"/>
<path d="M114.628 222.891C114.628 223.558 115.296 224.225 115.963 224.225C116.764 224.225 117.298 223.558 117.298 222.891C117.298 222.09 116.764 221.556 115.963 221.556C115.296 221.556 114.628 222.09 114.628 222.891Z" fill="black"/>
<path d="M145.326 223.691C145.326 224.759 145.993 225.293 146.661 224.893C147.461 224.359 147.728 223.424 147.328 222.757C146.127 220.889 145.326 221.289 145.326 223.691Z" fill="black"/>
<path d="M180.161 223.691C180.161 225.159 180.561 225.56 180.962 224.492C181.362 223.558 181.229 222.357 180.828 221.956C180.428 221.422 180.028 222.223 180.161 223.691Z" fill="black"/>
<path d="M197.378 222.891C197.378 223.558 198.046 224.225 198.846 224.225C199.514 224.225 199.781 223.558 199.38 222.891C198.98 222.09 198.313 221.556 197.912 221.556C197.645 221.556 197.378 222.09 197.378 222.891Z" fill="black"/>
</svg>
