<?xml version="1.0" encoding="iso-8859-1"?>
<!-- Uploaded to: SVG Repo, www.svgrepo.com, Generator: SVG Repo Mixer Tools -->
<svg height="800px" width="800px" version="1.1" id="Layer_1" xmlns="http://www.w3.org/2000/svg" xmlns:xlink="http://www.w3.org/1999/xlink" 
	 viewBox="0 0 496.182 496.182" xml:space="preserve">
<path style="fill:#D8DBBA;" d="M248.094,0C111.074,0,0,111.063,0,248.091c0,137.012,111.074,248.091,248.094,248.091
	c137.012,0,248.088-111.079,248.088-248.091C496.182,111.063,385.106,0,248.094,0z"/>
<path style="fill:#111111;" d="M304.106,84.237c0,0-33.14,10.594-57.09,10.594c-23.951,0-54.988-10.594-54.988-10.594
	s-3.963,68.469,54.704,68.469S304.106,84.237,304.106,84.237z"/>
<g>
	<path style="fill:#E2E0DC;" d="M156.633,156.091c-0.25-7.75-3.334-26-3.334-26s-1,29,2.857,44.546
		C156.156,174.637,156.883,163.841,156.633,156.091z"/>
	<path style="fill:#E2E0DC;" d="M340.732,130.091c0,0-3.083,18.25-3.333,26s0.477,18.546,0.477,18.546
		C341.732,159.091,340.732,130.091,340.732,130.091z"/>
</g>
<path style="fill:#E7F2F1;" d="M324.84,276.091l12.883-101.454l-33.617-90.4c0,0-8.395,68.469-57.09,68.469
	c-48.696,0-54.988-68.469-54.988-68.469l-35.719,90.4l12.882,101.454l-16.382,111c0,13.5,17.218,16.847,38.465,16.847h111.483
	c21.247,0,38.466-3.347,38.466-16.847L324.84,276.091z"/>
<g>
	<path style="fill:#353535;" d="M192.028,84.237c0,0-89.898,29.633-94.189,43.051S84.883,249.705,84.883,249.705
		c-4.381,26,6.75,175,6.75,175s7.516,0.25,16.016-1.5s23.104-6.5,23.104-6.5s7.491-141.666,10.688-157
		c3.197-15.332,14.867-65,14.867-65l3.19,135.324l-6.951,65.062c0,13.5,17.266,16.847,38.571,16.847h33.067l7.906-275.859
		C197.884,126.315,192.028,84.237,192.028,84.237z"/>
	<path style="fill:#353535;" d="M409.149,249.705c0,0-6.307-109.836-12.954-122.418s-92.089-43.051-92.089-43.051
		s-7.711,40.302-40.016,51.174l9.046,276.527h29.776c21.306,0,38.573-3.347,38.573-16.847l-6.94-65.056l3.178-135.33
		c0,0,11.67,49.668,14.868,65c3.196,15.334,10.688,157,10.688,157s13.869,3.5,22.369,6.5s16.75,1.5,16.75,1.5
		S413.529,275.705,409.149,249.705z"/>
</g>
<g>
	<path style="fill:#232323;" d="M156.633,179.091c-0.25-7.75-3.334-18.386-3.334-18.386s-1,21.386,2.857,36.932
		C156.156,197.637,156.883,186.841,156.633,179.091z"/>
	<path style="fill:#232323;" d="M340.732,160.705c0,0-3.083,10.636-3.333,18.386s0.477,18.546,0.477,18.546
		C341.732,182.091,340.732,160.705,340.732,160.705z"/>
</g>
<g>
	<path style="fill:#212121;" d="M203.907,112.591c-10.833-17.833-11.88-28.354-11.88-28.354s-8.37,8.354-10.453,11.854
		s-5.667,13.667,3,20.333l46.314,19.157C226.697,133.753,212.514,126.759,203.907,112.591z M230.889,135.581
		c0.769,0.335,1.203,0.498,1.203,0.498L230.889,135.581z"/>
	<path style="fill:#212121;" d="M265.292,134.913l-1.202,0.497C264.09,135.41,264.524,135.248,265.292,134.913z M314.608,95.424
		c-2.083-3.5-10.453-11.855-10.453-11.855s-1.047,10.521-11.88,28.355c-8.607,14.169-22.793,21.163-26.982,22.989l46.315-19.156
		C320.275,109.09,316.691,98.924,314.608,95.424z"/>
</g>
</svg>