<?xml version="1.0" encoding="iso-8859-1"?>
<!-- Uploaded to: SVG Repo, www.svgrepo.com, Generator: SVG Repo Mixer Tools -->
<svg height="800px" width="800px" version="1.1" id="Layer_1" xmlns="http://www.w3.org/2000/svg" xmlns:xlink="http://www.w3.org/1999/xlink" 
	 viewBox="0 0 512 512" xml:space="preserve">
<circle style="fill:#B2E3FF;" cx="256" cy="256" r="256"/>
<path style="fill:#A9D8F2;" d="M467.372,400.408L344,92v-3.328c0-2.584-2.092-4.672-4.676-4.672h-1.668l-0.056-0.472
	c-0.112-1.168-0.704-1.968-1.5-2.532l-0.156-1.468c-0.252-2.56-2.572-3.528-5.14-3.528h-70.128c-2.576,0-6.78,0-9.352,0h-70.128
	c-2.572,0-4.888,0.968-5.144,3.528L175.584,84h-2.916c-2.584,0-4.676,2.092-4.676,4.672v2.048v2.048v6.556v2.048v2.048
	c0,1.844,1.916,3.376,3.952,4.108c0.016,0.008,0.032,0.016,0.048,0.024v2.016v1.608l-4.96,49.064l-1.36,13.416
	c0.212-0.02-23.3,230.344-23.3,230.344l-0.832,8l-1.944,18.78c-0.124,1.192,0.236,2.392,0.896,3.348l-0.068,0.652
	c-0.164,1.584,0.508,3.22,1.652,4.228c-0.084,1.516,0.568,3.04,1.656,4c-0.084,1.516,0.564,3.036,1.652,3.996
	c-0.084,1.52,0.564,3.044,1.656,4.004c-0.084,1.516,0.568,3.04,1.656,4c-0.084,1.516,0.568,3.04,1.656,4
	c-0.084,1.516,0.564,3.04,1.656,4c-0.084,1.516,0.564,3.04,1.656,4c-0.084,1.516,0.564,3.04,1.656,4
	c-0.084,1.516,0.564,3.04,1.656,4c-0.084,1.516,0.56,3.036,1.652,3.996c-0.084,1.52,0.56,3.044,1.656,4.004
	c-0.084,1.516,0.564,3.04,1.656,4c-0.084,1.516,0.564,3.04,1.656,4c-0.084,1.516,0.564,3.04,1.652,4
	c-0.008,0.132,0.024,0.256,0.028,0.392C193.484,506.092,224.048,512,256,512C343.804,512,421.256,467.772,467.372,400.408z"/>
<path style="fill:#406A80;" d="M335.944,79.528c-0.252-2.56-2.572-3.528-5.14-3.528h-70.128c-2.576,0-6.78,0-9.352,0h-70.128
	c-2.572,0-4.888,0.968-5.144,3.528L139.596,430.78c-0.264,2.564,1.628,5.22,4.2,5.22h65.452c2.576,0,5.02-3.204,5.424-5.744
	l40.58-248.484c0.416-2.536,1.088-2.816,1.5-0.28l40.58,248.908c0.412,2.54,2.856,5.596,5.416,5.596h65.456
	c2.576,0,4.464-2.656,4.2-5.216L335.944,79.528z"/>
<path style="fill:#E6E6E6;" d="M165.676,173.66c34.984-3.92,62.272-33.66,62.272-69.66h-55.216L165.676,173.66z"/>
<path style="fill:#406A80;" d="M218.596,104h-45.872l-6.08,60.068C196.02,159.78,218.596,136,218.596,104z"/>
<path style="fill:#E6E6E6;" d="M346.324,173.66C311.34,169.74,284.056,140,284.056,104h55.22L346.324,173.66z"/>
<path style="fill:#406A80;" d="M293.408,104h45.872l6.08,60.068C315.98,159.78,293.408,136,293.408,104z"/>
<path style="opacity:0.2;fill:#2179A6;enable-background:new    ;" d="M338.868,108l-0.484-4H272V92.452
	c0-5.144-1.508-8.452-6.648-8.452h-18.704C241.508,84,236,87.308,236,92.452V104h-62.384l-0.484,4H236c1.62,0,4.568,4,8,4h24
	c3.428,0,6.384-4,8-4H338.868z"/>
<path style="fill:#263740;" d="M344,88.672c0-2.584-2.092-4.672-4.676-4.672H172.676c-2.584,0-4.676,2.092-4.676,4.672v10.652
	c0,2.584,2.092,4.672,4.676,4.672h166.648c2.584,0,4.676-2.092,4.676-4.672L344,88.672L344,88.672z"/>
<path style="fill:#1E2C33;" d="M244,87.776v9.352c0,1.708-1.528,2.872-0.72,6.872h34.784c0.808-4,1.928-5.168,1.928-6.872v-9.352
	c0-1.708-1.12-3.776-1.928-3.776H243.28C242.472,84,244,86.068,244,87.776z"/>
<path style="fill:#FFC066;" d="M276,98.652c0,5.164-4.188,9.348-9.352,9.348h-21.296c-5.164,0-9.352-4.184-9.352-9.348v-9.3
	c0-5.164,4.188-9.348,9.352-9.348h21.296c5.164,0,9.352,4.184,9.352,9.348V98.652z"/>
<g>
	<polygon style="fill:#E6E6E6;" points="141.048,412 216.98,412 218.512,404 142.02,404 	"/>
	<polygon style="fill:#E6E6E6;" points="369.98,404 293.488,404 295.02,412 370.952,412 	"/>
	<path style="fill:#E6E6E6;" d="M200,104c0,2.208-1.788,4-4,4l0,0c-2.212,0-4-1.792-4-4V84c0-2.208,1.788-4,4-4l0,0
		c2.212,0,4,1.792,4,4V104z"/>
	<path style="fill:#E6E6E6;" d="M312,104c0,2.208-1.788,4-4,4l0,0c-2.212,0-4-1.792-4-4V84c0-2.208,1.788-4,4-4l0,0
		c2.212,0,4,1.792,4,4V104z"/>
</g>
</svg>