<?xml version="1.0" encoding="iso-8859-1"?>
<!-- Uploaded to: SVG Repo, www.svgrepo.com, Generator: SVG Repo Mixer Tools -->
<svg height="800px" width="800px" version="1.1" id="Layer_1" xmlns="http://www.w3.org/2000/svg" xmlns:xlink="http://www.w3.org/1999/xlink" 
	 viewBox="0 0 505 505" xml:space="preserve">
<circle style="fill:#90DFAA;" cx="252.5" cy="252.5" r="252.5"/>
<path style="fill:#FFFFFF;" d="M395.5,369.2l-121.6,24.6l-21.4-117.5l-21.4,117.5l-121.6-24.6c-5.7-98.9,35.2-235,42.4-258
	c29.5,2.7,63.9,4.2,100.6,4.2s71-1.5,100.6-4.2C360.2,134.2,401.2,270.3,395.5,369.2z"/>
<g>
	<path style="fill:#ACB3BA;" d="M385,241.7C351.7,201.3,336.9,132,336.9,132l22.9,2.1c0.3,1,0.6,2,0.9,3.1
		C367.7,161.9,377.5,200,385,241.7z"/>
	<path style="fill:#ACB3BA;" d="M120.2,241.7c33.3-40.4,48.1-109.7,48.1-109.7l-22.9,2.1c-0.3,1-0.6,2-0.9,3.1
		C137.5,161.9,127.7,200,120.2,241.7z"/>
</g>
<path style="fill:#324A5E;" d="M360.7,137.2c-70.7,20.6-145.8,20.6-216.4,0c3.4-12.2,6.2-21.2,7.6-25.8
	c65.7,19.2,135.5,19.2,201.2,0C354.5,115.9,357.3,124.9,360.7,137.2z"/>
<g>
	<path style="fill:#ACB3BA;" d="M280.4,151.6v62.2c0,15.4-12.5,27.9-27.9,27.9v-89.1C261.8,152.6,271.1,152.3,280.4,151.6z"/>
	<circle style="fill:#ACB3BA;" cx="266.4" cy="139.7" r="7.7"/>
</g>
</svg>